<svg width="102" height="26" viewBox="0 0 102 26" fill="none" xmlns="http://www.w3.org/2000/svg">
<path d="M12 3L3 8V18L12 23L17 20.5L21 23V18L17 15.8L21 13V8L12 3Z" stroke="#D50E0E" stroke-width="1.5" stroke-miterlimit="10" stroke-linecap="round" stroke-linejoin="round"/>
<path d="M12 7.3999L7 10.1999V15.7999L12 18.5999L17 15.7999V10.1999L12 7.3999Z" stroke="#D50E0E" stroke-width="1.5" stroke-miterlimit="10" stroke-linecap="round" stroke-linejoin="round"/>
<path d="M3 8L7 10.2" stroke="#D50E0E" stroke-width="1.5" stroke-miterlimit="10" stroke-linecap="round" stroke-linejoin="round"/>
<path d="M3 18L7 15.8" stroke="#D50E0E" stroke-width="1.5" stroke-miterlimit="10" stroke-linecap="round" stroke-linejoin="round"/>
<path d="M21 8L17 10.2" stroke="#D50E0E" stroke-width="1.5" stroke-miterlimit="10" stroke-linecap="round" stroke-linejoin="round"/>
<path d="M12 7V3" stroke="#D50E0E" stroke-width="1.5" stroke-miterlimit="10" stroke-linecap="round" stroke-linejoin="round"/>
<path d="M12 23V19" stroke="#D50E0E" stroke-width="1.5" stroke-miterlimit="10" stroke-linecap="round" stroke-linejoin="round"/>
<path d="M17 21V16" stroke="#D50E0E" stroke-width="1.5" stroke-miterlimit="10"/>
<path d="M38.32 17.472L38.752 18.16L35.808 19.968C35.36 20.1067 34.9227 20.1973 34.496 20.24C34.08 20.2933 33.632 20.32 33.152 20.32C31.968 20.32 30.9173 20.048 30 19.504C29.0933 18.96 28.384 18.2133 27.872 17.264C27.3707 16.304 27.12 15.216 27.12 14C27.12 12.752 27.4987 11.6 28.256 10.544C29.0133 9.47733 29.9573 8.64 31.088 8.032C32.2187 7.41333 33.296 7.104 34.32 7.104C34.928 7.104 35.6373 7.184 36.448 7.344C37.2587 7.504 37.8507 7.67467 38.224 7.856V10.96H37.616C36.5493 9.28533 35.1413 8.448 33.392 8.448C32.624 8.448 31.9253 8.656 31.296 9.072C30.6667 9.47733 30.1707 10.048 29.808 10.784C29.456 11.5093 29.28 12.3253 29.28 13.232C29.28 14.2773 29.4507 15.232 29.792 16.096C30.144 16.96 30.6773 17.6533 31.392 18.176C32.1067 18.6987 32.992 18.96 34.048 18.96C34.5173 18.96 34.9067 18.944 35.216 18.912C35.5253 18.88 35.8933 18.7787 36.32 18.608V14.832L33.856 14.144L34.176 13.504H39.84V14L38.32 15.2V17.472ZM45.5865 20H41.1225V19.504L42.5465 18.384V8.544L41.1225 7.552V7.056L43.8585 6.032H44.4665V18.8L45.9065 19.36L45.5865 20ZM52.8048 20.032C52.3781 20.1173 51.8661 20.16 51.2688 20.16C50.5648 20.16 49.9301 19.9787 49.3648 19.616C48.8101 19.2427 48.3728 18.7413 48.0528 18.112C47.7434 17.4827 47.5888 16.7893 47.5888 16.032C47.5888 15.2107 47.8394 14.4427 48.3408 13.728C48.8421 13.0027 49.4661 12.4267 50.2128 12C50.9701 11.5627 51.7008 11.344 52.4048 11.344C53.4181 11.344 54.2021 11.744 54.7568 12.544C55.3221 13.344 55.6048 14.4 55.6048 15.712H49.6848C49.7488 16.6187 49.9941 17.36 50.4208 17.936C50.8581 18.512 51.4501 18.8 52.1968 18.8C52.8901 18.8 53.8768 18.2613 55.1568 17.184L55.6368 17.792L52.8048 20.032ZM51.4768 12.688C50.3248 12.688 49.7221 13.4773 49.6688 15.056H53.4128C53.3168 14.48 53.2154 14.0427 53.1088 13.744C53.0128 13.4347 52.8368 13.184 52.5808 12.992C52.3354 12.7893 51.9674 12.688 51.4768 12.688ZM63.086 20.032C62.6593 20.1173 62.1473 20.16 61.55 20.16C60.846 20.16 60.2113 19.9787 59.646 19.616C59.0913 19.2427 58.654 18.7413 58.334 18.112C58.0247 17.4827 57.87 16.7893 57.87 16.032C57.87 15.2107 58.1207 14.4427 58.622 13.728C59.1233 13.0027 59.7473 12.4267 60.494 12C61.2513 11.5627 61.982 11.344 62.686 11.344C63.6993 11.344 64.4833 11.744 65.038 12.544C65.6033 13.344 65.886 14.4 65.886 15.712H59.966C60.03 16.6187 60.2753 17.36 60.702 17.936C61.1393 18.512 61.7313 18.8 62.478 18.8C63.1713 18.8 64.158 18.2613 65.438 17.184L65.918 17.792L63.086 20.032ZM61.758 12.688C60.606 12.688 60.0033 13.4773 59.95 15.056H63.694C63.598 14.48 63.4967 14.0427 63.39 13.744C63.294 13.4347 63.118 13.184 62.862 12.992C62.6167 12.7893 62.2487 12.688 61.758 12.688ZM72.4713 20.032C72.2259 20.1173 71.9273 20.16 71.5753 20.16C70.6899 20.16 70.0393 19.9307 69.6233 19.472C69.2179 19.0027 69.0153 18.2827 69.0153 17.312V12.64H67.2873V11.984L70.3273 8.448H70.9353V11.984H73.8153V12.64H70.9353V17.504C70.9353 18.368 71.3513 18.8 72.1833 18.8C72.4073 18.8 72.6206 18.752 72.8233 18.656C73.0366 18.56 73.2979 18.3893 73.6073 18.144L74.0873 18.752L72.4713 20.032ZM80.1079 11.344C80.8119 11.344 81.4412 11.5307 81.9959 11.904C82.5612 12.2667 82.9985 12.7627 83.3079 13.392C83.6279 14.0213 83.7879 14.7147 83.7879 15.472C83.7879 16.2933 83.5372 17.0667 83.0359 17.792C82.5345 18.5067 81.9052 19.0827 81.1479 19.52C80.4012 19.9467 79.6759 20.16 78.9719 20.16C78.2679 20.16 77.6332 19.9787 77.0679 19.616C76.5132 19.2427 76.0759 18.7413 75.7559 18.112C75.4465 17.4827 75.2919 16.7893 75.2919 16.032C75.2919 15.2107 75.5425 14.4427 76.0439 13.728C76.5452 13.0027 77.1692 12.4267 77.9159 12C78.6732 11.5627 79.4039 11.344 80.1079 11.344ZM79.1799 12.688C77.9745 12.688 77.3719 13.5467 77.3719 15.264C77.3719 16.2773 77.5905 17.1253 78.0279 17.808C78.4652 18.48 79.0892 18.816 79.8999 18.816C81.1052 18.816 81.7079 17.952 81.7079 16.224C81.7079 15.2213 81.4892 14.384 81.0519 13.712C80.6145 13.0293 79.9905 12.688 79.1799 12.688ZM91.2338 5.872C91.5324 5.872 91.8684 5.904 92.2418 5.968C92.6258 6.02133 92.8978 6.08 93.0578 6.144V8.608H92.4498C92.1831 8.18133 91.8578 7.84533 91.4738 7.6C91.0898 7.344 90.7004 7.216 90.3058 7.216C89.8151 7.216 89.4418 7.43467 89.1858 7.872C88.9404 8.30933 88.8177 8.94933 88.8177 9.792V11.984H91.6978V12.64H88.8177V18.672L91.0578 19.36L90.7378 20H85.4738V19.504L86.8978 18.384V12.64H84.9938V11.984H86.8978V10.56C86.8978 9.73867 87.1218 8.96533 87.5698 8.24C88.0178 7.51467 88.5778 6.93867 89.2498 6.512C89.9324 6.08533 90.5938 5.872 91.2338 5.872ZM100.953 12L96.905 20L93.577 24.224L92.969 23.744C93.577 23.0933 94.0357 22.5227 94.345 22.032C94.665 21.5413 94.889 21.0453 95.017 20.544C95.145 20.0533 95.209 19.4667 95.209 18.784L93.193 13.904L91.705 13.04V12.544L94.441 11.2L95.049 13.616L97.001 18.384L99.257 13.696L97.129 12.144L97.449 11.504H100.953V12Z" fill="black"/>
</svg>
